# xmcd CD database file
#
# Track frame offsets:
#	182
#	19487
#	44010
#	61617
#	84435
#	102232
#	118507
#	134312
#	155077
#	170102
#	186577
#	211842
#
# Disc length: 3001 seconds
#
# Revision: 0
# Processed by: cddbd v1.4PL0 Copyright (c) Steve Scherf et al.
# Submitted via: Feurio! 1.64.2ß - http://www.feurio.com
#
DISCID=ab0bb70c
DTITLE=VOX - Najwieksze Przeboje
DYEAR=1900
DGENRE=
TTITLE0=Bananowy Song
TTITLE1=Masz w oczach Kolor nieba
TTITLE2=Zielonooka
TTITLE3=A Ty Kochaj mnie
TTITLE4=Mr No One
TTITLE5=Nie martw sie
TTITLE6=Zabiore cie magdaleno
TTITLE7=Jest Inaczej
TTITLE8=Postscriptum
TTITLE9=Graj na cztery rece
TTITLE10=Szczesliwej drogi juz czas
TTITLE11=Because
EXTD=
EXTT0=
EXTT1=
EXTT2=
EXTT3=
EXTT4=
EXTT5=
EXTT6=
EXTT7=
EXTT8=
EXTT9=
EXTT10=
EXTT11=
PLAYORDER=
